<svg id="Layer_1" enable-background="new 0 0 512.686 512.686" height="512" viewBox="0 0 512.686 512.686" width="512" xmlns="http://www.w3.org/2000/svg"><g><path d="m497.766 470.585h-44.191v-100.039c0-8.284-6.716-15-15-15h-106.008v-65.241c0-8.284-6.716-15-15-15h-121.126c-8.284 0-15 6.716-15 15v38.232h-106.006c-8.284 0-15 6.716-15 15v127.048h-45.514c-19.902.793-19.887 29.215 0 30h482.845c19.902-.793 19.886-29.215 0-30zm-195.199-165.28c.026 38.96-.193 125.822-.119 165.28h-90.888c.054-28.179-.06-139.647-.119-165.28zm-212.132 53.232h91.007v112.048h-91.007zm242.132 112.048v-85.039h91.007v85.039z"/><path d="m178.76 107.557h4.458c7.811 28.332 31.3 50.213 60.515 55.691v26.922h-12.753c-19.902.793-19.887 29.215 0 30h55.506c19.902-.793 19.887-29.215 0-30h-12.753v-27.161c28.602-5.882 51.496-27.548 59.189-55.452h4.506c29.269 0 53.081-23.812 53.081-53.08v-27.375c0-8.284-6.716-15-15-15h-54.741c-.016.001-.032.001-.048 0h-180.041c-8.284 0-15 6.716-15 15v27.375c0 29.268 23.812 53.08 53.081 53.08zm181.75-53.08c0 12.727-10.354 23.08-23.081 23.08h-1.708v-35.455h24.789zm-54.789 32.469c-2.625 63.23-92.699 63.181-95.301 0v-44.844h95.301zm-150.042-44.844h24.741v35.455h-1.66c-12.727 0-23.081-10.354-23.081-23.08z"/><path d="m376.524 243.052c0 5.91 3.471 11.271 8.864 13.687l31.319 14.039 14.038 31.317c5.197 11.748 22.179 11.742 27.375.001l14.039-31.318 31.318-14.039c11.747-5.198 11.742-22.181-.001-27.375l-31.317-14.038-14.039-31.319c-5.199-11.747-22.181-11.741-27.375.001l-14.038 31.318-31.318 14.038c-5.393 2.417-8.865 7.777-8.865 13.688zm57.669-2.688c3.359-1.505 6.048-4.193 7.553-7.553l2.688-5.996 2.688 5.997c1.505 3.358 4.193 6.047 7.553 7.552l5.995 2.688-5.996 2.688c-3.358 1.505-6.047 4.193-7.552 7.552l-2.688 5.996-2.688-5.995c-1.505-3.359-4.193-6.048-7.552-7.553l-5.997-2.688z"/><path d="m9.208 191.642 31.318 14.038 14.038 31.318c5.197 11.748 22.181 11.743 27.375 0l14.038-31.318 31.318-14.038c11.748-5.197 11.743-22.181 0-27.375l-31.318-14.038-14.038-31.319c-5.197-11.748-22.181-11.743-27.375 0l-14.038 31.318-31.318 14.039c-11.748 5.197-11.743 22.181 0 27.375zm48.804-16.375c3.359-1.505 6.048-4.193 7.553-7.553l2.688-5.995 2.688 5.995c1.505 3.359 4.193 6.048 7.553 7.553l5.995 2.688-5.995 2.688c-3.359 1.505-6.048 4.193-7.553 7.553l-2.688 5.995-2.688-5.995c-1.505-3.359-4.193-6.048-7.553-7.553l-5.995-2.688z"/></g></svg>